<svg width="80" height="80" viewBox="0 0 12.8 12.8" xmlns="http://www.w3.org/2000/svg" aria-hidden="true" class="iconify iconify--noto"><radialGradient id="a" cx="63.6" cy="-2088.9" r="56.96" gradientTransform="matrix(1 0 0 -1 0 -2026)" gradientUnits="userSpaceOnUse"><stop offset=".5" stop-color="#fde030"/><stop offset=".919" stop-color="#f7c02b"/><stop offset="1" stop-color="#f4a223"/></radialGradient><path d="M6.36 11.88c-2.79 0-5.8-1.75-5.8-5.59S3.57.7 6.36.7c1.55 0 2.98.51 4.04 1.44 1.15 1.02 1.76 2.46 1.76 4.15s-.61 3.12-1.76 4.14c-1.06.93-2.5 1.45-4.04 1.45" fill="url(#a)"/><path d="M10.207 7.162c-.133-.246-.414-.353-.714-.26-.896.28-2.047.442-3.159.443-1.112-.001-2.263-.163-3.159-.443-.299-.093-.581.014-.714.26-.136.252-.037.542.077.794.642 1.41 2.057 2.254 3.787 2.259h.016c1.73-.005 3.145-.849 3.787-2.259.116-.252.215-.543.079-.794m-3.865 2.927h-.016zm.007-2.619h-.03zm0 0h-.03zm-.007 2.619h-.016z" fill="#35220b"/><path d="M7.822 9.717c.937-.329 1.675-.976 2.08-1.866.126-.277.151-.448.085-.571-.076-.142-.235-.198-.419-.14-.914.286-2.084.452-3.216.455h-.035c-1.131-.003-2.301-.168-3.216-.455a.5.5 0 0 0-.138-.023.31.31 0 0 0-.281.162c-.067.124-.041.294.085.571.398.873 1.117 1.512 2.029 1.847.43-.341.937-.522 1.546-.522a2.18 2.18 0 0 1 1.48.542" fill="none"/><path d="M7.935 9.814q-.056-.05-.113-.097a2.18 2.18 0 0 0-1.48-.541c-.609 0-1.116.18-1.546.522q-.059.046-.116.094a1 1 0 0 0-.08.1c.521.207 1.103.32 1.727.322h.016A4.7 4.7 0 0 0 8 9.919a1 1 0 0 0-.065-.105" fill="#ed7770"/><path d="M9.493 6.902c-.896.28-2.047.442-3.159.443-1.112-.001-2.263-.163-3.159-.443-.299-.093-.581.014-.714.26a.5.5 0 0 0-.045.12q.049.025.116.052c1.21.617 2.516.893 3.88.893 1.309 0 2.564-.255 3.733-.821q.07-.03.121-.057a.6.6 0 0 0-.06-.187c-.132-.246-.413-.354-.713-.26" fill="#fff"/><path d="M6.284 7.506c.817.014 1.482-.11 2.29-.264q.303-.058.602-.137l.149-.041a.6.6 0 0 1 .119-.023.45.45 0 0 1 .214.031c.127.053.308.213.353.341.119.34-.074.934-.026.835l.124-.21c.081-.195.187-.416.161-.683a.76.76 0 0 0-.483-.609.8.8 0 0 0-.382-.041 1 1 0 0 0-.177.042l-.141.046q-.284.087-.575.156c-.776.181-1.416.276-2.218.296H6.27c-.802-.019-1.403-.115-2.179-.296a9 9 0 0 1-.575-.156l-.141-.046a1 1 0 0 0-.177-.042.8.8 0 0 0-.382.041.75.75 0 0 0-.467.607c-.058.438.339.909.341.912.048.099-.201-.514-.082-.854a.7.7 0 0 1 .336-.339.43.43 0 0 1 .214-.031c.04.003.073.011.119.023l.149.041q.3.079.602.137c.807.153 1.416.277 2.233.264" fill="#eb8f00"/><path d="M12.575 3.333s-.103-.178-2.016-.356c-2.547-.237-3.461.471-3.633.631l-.018-.001c-.191-.012-.372-.024-.572-.024h-.009c-.098.001-.293.011-.459.021-.184-.169-1.104-.862-3.628-.627-1.912.178-2.015.356-2.015.356l-.012.722s.285.081.47.31c.184.226.27 1.492.569 2.087.463.924 2.765.69 2.765.69s.939.074 1.397-.717c.415-.715.569-1.717.594-1.9a.76.76 0 0 1 .788.02c.033.226.19 1.188.591 1.879.458.79 1.397.717 1.397.717s2.302.234 2.765-.69c.299-.596.385-1.861.569-2.087.184-.229.47-.31.47-.31zm-7.34 1.992c-.182.844-.411 1.419-1.972 1.33-1.005-.057-1.704-.055-1.865-1.521-.099-.911.011-1.255.086-1.365.074-.109.343-.425 1.898-.37s1.778.404 1.869.562l.011.02.066.218c.037.217.029.565-.093 1.126m6.167-.191c-.16 1.466-.859 1.464-1.864 1.521-1.561.089-1.79-.486-1.972-1.33-.183-.842-.109-1.207-.017-1.364.091-.158.314-.508 1.869-.562 1.556-.055 1.824.261 1.898.37.074.11.185.454.086 1.365" fill="#35220b"/><path d="M9.002 4.194c-.419 0-.8.354-.8.942s.381.942.8.942.8-.354.8-.942-.381-.942-.8-.942" fill="#35220b"/><path d="M8.963 4.587c-.103-.072-.258-.049-.358.095s-.067.297.036.369.258.049.358-.095c.101-.145.068-.297-.036-.369" fill="#896024"/><path d="M9.002 4.194c-.419 0-.8.354-.8.942s.381.942.8.942.8-.354.8-.942-.381-.942-.8-.942" fill="#35220b"/><path d="M8.963 4.587c-.103-.072-.258-.049-.358.095s-.067.297.036.369.258.049.358-.095c.101-.145.068-.297-.036-.369" fill="#896024"/><path d="M3.767 4.194c-.419 0-.8.354-.8.942s.381.942.8.942.8-.354.8-.942-.381-.942-.8-.942" fill="#35220b"/><path d="M3.728 4.587c-.103-.072-.258-.049-.358.095s-.067.297.036.369.258.049.358-.095.067-.297-.036-.369" fill="#896024"/></svg>